<svg width="35" height="35" viewBox="0 0 35 35" fill="none" xmlns="http://www.w3.org/2000/svg">
<g clip-path="url(#clip0_1405_39038)">
<path d="M6.96411 20.7845L9.96411 15.5884C12.1733 11.762 17.066 10.451 20.8923 12.6602C24.7187 14.8693 26.0297 19.762 23.8205 23.5884L20.8205 28.7845C18.6114 32.6109 13.7187 33.9219 9.89231 31.7127C6.06597 29.5036 4.75497 24.6109 6.96411 20.7845Z" fill="url(#paint0_linear_1405_39038)"/>
<path d="M5 16.1864L8 10.9902C10.2091 7.16387 15.1019 5.85287 18.9282 8.06201C22.7545 10.2712 24.0655 15.1639 21.8564 18.9902L18.8564 24.1864C16.6473 28.0127 11.7545 29.3237 7.9282 27.1146C4.10186 24.9054 2.79086 20.0127 5 16.1864Z" stroke="black" stroke-width="1.4" stroke-linecap="round" stroke-linejoin="round"/>
<path d="M14.0623 14.4905L15.5623 11.8924C15.8384 11.4141 16.45 11.2502 16.9283 11.5264C17.4066 11.8025 17.5704 12.4141 17.2943 12.8924L15.7943 15.4905C15.5182 15.9688 14.9066 16.1326 14.4283 15.8565C13.95 15.5804 13.7861 14.9688 14.0623 14.4905Z" stroke="black" stroke-width="1.4" stroke-linecap="round" stroke-linejoin="round"/>
<path d="M20.4282 5.4641L20.5532 5.2476C21.5888 3.454 23.8822 2.83947 25.6758 3.875V3.875C27.4694 4.91053 28.0839 7.204 27.0484 8.9976L26.1355 10.5787C25.4661 11.7382 25.8634 13.2209 27.0229 13.8903V13.8903C28.1824 14.5598 29.665 14.1625 30.3344 13.003L31.1223 11.6383" stroke="black" stroke-width="1.4" stroke-linecap="round"/>
</g>
<defs>
<linearGradient id="paint0_linear_1405_39038" x1="6.31963" y1="33.5158" x2="31.6148" y2="15.531" gradientUnits="userSpaceOnUse">
<stop stop-color="#9A9A9A" stop-opacity="0.5"/>
<stop offset="1" stop-color="#D9D9D9" stop-opacity="0"/>
</linearGradient>
<clipPath id="clip0_1405_39038">
<rect width="35" height="35" fill="white"/>
</clipPath>
</defs>
</svg>
