<svg width="35" height="35" viewBox="0 0 35 35" fill="none" xmlns="http://www.w3.org/2000/svg">
<path d="M5 20V10C5 8.34315 6.34315 7 8 7H27C28.6569 7 30 8.34315 30 10V12.8721V16.9292V20C30 21.6568 28.6569 23 27 23L8 23C6.34315 23 5 21.6569 5 20Z" fill="url(#paint0_linear_1405_39683)"/>
<path d="M3 22V8C3 6.34315 4.34315 5 6 5H29C30.6569 5 32 6.34314 32 8V12.3401V17.4115V22C32 23.6568 30.6569 25 29 25L6 25C4.34315 25 3 23.6569 3 22Z" stroke="black" stroke-width="1.4" stroke-linecap="round" stroke-linejoin="round"/>
<path d="M15 30V25H20V26.835V28.1029V30L15 30Z" stroke="black" stroke-width="1.4" stroke-linecap="round" stroke-linejoin="round"/>
<path d="M12 30L23 30" stroke="black" stroke-width="1.4" stroke-linecap="round"/>
<defs>
<linearGradient id="paint0_linear_1405_39683" x1="14.0742" y1="25.4348" x2="19.1315" y2="1.68877" gradientUnits="userSpaceOnUse">
<stop stop-color="#9A9A9A" stop-opacity="0.5"/>
<stop offset="1" stop-color="#D9D9D9" stop-opacity="0"/>
</linearGradient>
</defs>
</svg>
