<svg width="35" height="35" viewBox="0 0 35 35" fill="none" xmlns="http://www.w3.org/2000/svg">
<path d="M9 11V4C9 3.44772 9.44772 3 10 3H25C25.5523 3 26 3.44772 26 4V11C26 11.5523 25.5523 12 25 12H10C9.44772 12 9 11.5523 9 11Z" stroke="black" stroke-width="1.4" stroke-linecap="round" stroke-linejoin="round"/>
<path d="M9 31V20C9 19.4477 9.44772 19 10 19H25C25.5523 19 26 19.4477 26 20V31C26 31.5523 25.5523 32 25 32H10C9.44772 32 9 31.5523 9 31Z" fill="url(#paint0_linear_1410_39896)"/>
<path d="M27 27H28C30.2091 27 32 25.2091 32 23V16C32 13.7909 30.2091 12 28 12H7C4.79086 12 3 13.7909 3 16L3 23C3 25.2091 4.79086 27 7 27H8" stroke="black" stroke-width="1.4" stroke-linecap="round" stroke-linejoin="round"/>
<circle cx="26" cy="16" r="1" fill="black"/>
<circle cx="23" cy="16" r="1" fill="black"/>
<path d="M8 23L27 23" stroke="black" stroke-width="1.4" stroke-linecap="round"/>
<defs>
<linearGradient id="paint0_linear_1410_39896" x1="15.1705" y1="33.9783" x2="19.9908" y2="15.0361" gradientUnits="userSpaceOnUse">
<stop stop-color="#9A9A9A" stop-opacity="0.5"/>
<stop offset="1" stop-color="#D9D9D9" stop-opacity="0"/>
</linearGradient>
</defs>
</svg>
