<svg xmlns="http://www.w3.org/2000/svg" width="30" height="30" fill="none" viewBox="0 0 30 30">
  <g clip-path="url(#a)">
    <path fill="#0866FF" d="M30 15c0-8.2842-6.7158-15-15-15S0 6.7158 0 15c0 7.0344 4.8432 12.9372 11.3766 14.5584V19.584h-3.093V15h3.093v-1.9752c0-5.1054 2.3106-7.4718 7.323-7.4718.9504 0 2.5902.1866 3.261.3726v4.155c-.354-.0372-.969-.0558-1.7328-.0558-2.4594 0-3.4098.9318-3.4098 3.354V15h4.8996l-.8418 4.584H16.818v10.3062c7.4274-.897 13.1826-7.221 13.1826-14.8902H30Z"/>
    <path fill="#fff" d="M20.8752 19.584 21.717 15h-4.8996v-1.6212c0-2.4222.9504-3.354 3.4098-3.354.7638 0 1.3788.0186 1.7328.0558V5.92559c-.6708-.1866-2.3106-.3726-3.261-.3726-5.0124 0-7.323 2.3664-7.323 7.47181V15H8.28299v4.584H11.376v9.9744c1.1604.288 2.3742.4416 3.6234.4416.615 0 1.2216-.0378 1.8174-.1098V19.584H20.8752Z"/>
  </g>
  <defs>
    <clipPath id="a">
      <rect width="30" height="30" fill="#fff"/>
    </clipPath>
  </defs>
</svg>