<svg width="35" height="35" viewBox="0 0 35 35" fill="none" xmlns="http://www.w3.org/2000/svg">
<rect width="15" height="24" rx="1" transform="matrix(1 0 0 -1 5 29)" fill="url(#paint0_linear_4006_31195)"/>
<rect width="15" height="23" rx="1" transform="matrix(1 0 0 -1 3 26)" stroke="black" stroke-width="1.4" stroke-linecap="round" stroke-linejoin="round"/>
<circle cx="10.5" cy="16.5" r="1.5" fill="black"/>
<circle cx="10.5" cy="21.5" r="1.5" fill="black"/>
<path d="M6 6H14" stroke="black" stroke-width="1.4" stroke-linecap="round"/>
<path d="M23.8508 20.7639C22.9716 21.2707 22.259 21.9968 21.7661 22.8498C21.2725 23.704 20.9994 24.6855 21 25.7017C21.0003 26.1889 21.0636 26.684 21.1956 27.177C21.603 28.6974 22.5882 29.9088 23.8515 30.6382C24.7053 31.1311 25.6861 31.4039 26.7016 31.4033M29.5524 30.6394C30.4328 30.1319 31.1462 29.4045 31.6392 28.55C32.1315 27.6967 32.4039 26.7165 32.4033 25.7017C32.403 25.2145 32.3397 24.7193 32.2076 24.2263C31.8003 22.7062 30.8156 21.4951 29.5526 20.7656C28.6986 20.2724 27.7175 19.9994 26.7016 20" stroke="black" stroke-width="1.4" stroke-linecap="round" stroke-linejoin="round"/>
<path d="M22.6877 20.2041L24.1086 20.5848L23.7279 22.0057" stroke="black" stroke-width="1.4" stroke-linecap="round" stroke-linejoin="round"/>
<path d="M30.8806 30.9971L29.4597 30.6163L29.8404 29.1954" stroke="black" stroke-width="1.4" stroke-linecap="round" stroke-linejoin="round"/>
<defs>
<linearGradient id="paint0_linear_4006_31195" x1="5.44452" y1="27.6522" x2="20.8909" y2="-1.35822" gradientUnits="userSpaceOnUse">
<stop stop-color="#9A9A9A" stop-opacity="0.5"/>
<stop offset="1" stop-color="#D9D9D9" stop-opacity="0"/>
</linearGradient>
</defs>
</svg>
