<svg width="40" height="40" xmlns="http://www.w3.org/2000/svg" xml:space="preserve" version="1.1">

 <g>
  <title>Layer 1</title>
  <g stroke="null" id="svg_1">
   <g stroke="null" id="svg_2">
    <g stroke="null" id="XMLID_00000054261887759305762340000007786802640635064252_">
     <g stroke="null" id="XMLID_00000144295652206692179930000000313640730864342658_">
      <path stroke="null" d="m9.5021,19.62021l-2.20392,0l-0.67436,-1.62563l-3.67131,0l-0.61408,1.62563l-2.16624,0l3.30965,-8.21101l2.37157,0l3.64871,8.21101zm-4.80341,-6.25009l-1.20368,3.19097l2.52791,0l-1.32423,-3.19097z" id="XMLID_00000120553588260841402290000008779108645429090987_"/>
      <path stroke="null" d="m17.50591,11.4092l1.78197,0l0,8.21101l-2.04757,0l0,-5.12929l-2.21522,2.57501l-0.31269,0l-2.21522,-2.57501l0,5.12929l-2.04757,0l0,-8.21101l1.78197,0l2.63717,3.04593l2.63717,-3.04593z" id="XMLID_00000115492367008569876380000004417320222775751082_"/>
      <path stroke="null" d="m24.47368,11.4092c2.99695,0 4.53781,1.86485 4.53781,4.11775c0,2.36027 -1.49188,4.09326 -4.76762,4.09326l-3.39441,0l0,-8.21101l3.62422,0zm-1.57853,6.70594l1.33554,0c2.05887,0 2.67296,-1.39582 2.67296,-2.60138c0,-1.409 -0.75913,-2.59949 -2.69745,-2.59949l-1.31105,0l0,5.20087z" id="XMLID_00000101813185561532026090000000424301970855041928_"/>
     </g>
     <g stroke="null" id="XMLID_00000049213571062428060240000015974422439474722947_">
      <polygon stroke="null" points="37.31668472290039,13.355057150125504 33.08403015136719,13.355057150125504 30.501493453979492,10.774399191141129 39.89734649658203,10.774399191141129 39.89734649658203,20.170253187417984 37.31668472290039,17.58959522843361 " id="XMLID_00000100380264204424614640000000992330976355342248_"/>
      <polygon stroke="null" points="33.08026123046875,17.591477781534195 33.08026123046875,13.873072057962418 30.422378540039062,16.5290769636631 30.422378540039062,20.249368101358414 34.14266586303711,20.249368101358414 36.79867935180664,17.591477781534195 " id="XMLID_00000149384356619154414800000012971396637224134036_"/>
     </g>
    </g>
   </g>
   <g stroke="null" id="svg_3">
    <polygon stroke="null" id="svg_4" points="14.201913833618164,25.20495167374611 18.19722557067871,25.20495167374611 14.201913833618164,28.646459013223648 14.201913833618164,29.80492725968361 19.947172164916992,29.80492725968361 19.947172164916992,28.655875593423843 15.951861381530762,28.655875593423843 19.947172164916992,25.21437206864357 19.947172164916992,24.055901914834976 14.201913833618164,24.055901914834976 "/>
    <polygon stroke="null" id="svg_5" points="9.969257354736328,26.33516636490822 8.324795722961426,24.055901914834976 6.90449333190918,24.055901914834976 9.389081001281738,27.504943281412125 9.389081001281738,29.80492725968361 10.53813362121582,29.80492725968361 10.53813362121582,27.504943281412125 13.035907745361328,24.055901914834976 11.615605354309082,24.055901914834976 "/>
    <g stroke="null" id="svg_6">
     <rect stroke="null" id="svg_7" height="1.14905" width="5.74714" y="24.0559" x="21.55208"/>
     <g stroke="null" id="svg_8">
      <polygon stroke="null" id="svg_9" points="21.55207633972168,26.355889707803726 21.55207633972168,29.80492725968361 27.299213409423828,29.80492725968361 27.299213409423828,28.655875593423843 22.70301055908203,28.655875593423843 22.70301055908203,27.504943281412125 27.299213409423828,27.504943281412125 27.299213409423828,26.355889707803726 "/>
     </g>
    </g>
    <g stroke="null" id="svg_10">
     <path stroke="null" id="svg_11" d="m1.32123,27.50494l2.12104,0l1.328,2.29999l1.328,0l-1.328,-2.29999l0,0c0.6348,0 1.14905,-0.51425 1.14905,-1.14905l0,-1.14905c0,-0.6348 -0.51425,-1.14905 -1.14905,-1.14905l-4.59809,0l0,1.14905l4.51709,0c0.04521,0 0.081,0.03579 0.081,0.081l0,0.98705c0,0.04521 -0.03579,0.081 -0.081,0.081l-4.51709,0l0,1.14905l0,2.29999l1.14905,0l0,-2.29999z"/>
    </g>
    <polygon stroke="null" id="svg_12" points="33.643489837646484,24.057786375284195 33.643489837646484,28.053094297647476 30.20198631286621,24.057786375284195 29.043516159057617,24.057786375284195 29.043516159057617,29.803044706583023 30.192567825317383,29.803044706583023 30.192567825317383,25.80773487687111 33.63407516479492,29.803044706583023 34.7906608581543,29.803044706583023 34.7906608581543,24.057786375284195 "/>
   </g>
  </g>
 </g>
</svg>