<svg xmlns="http://www.w3.org/2000/svg" width="30" height="30" fill="none" viewBox="0 0 30 30">
  <g clip-path="url(#a)">
    <path fill="url(#b)" d="M15 30c8.2843 0 15-6.7157 15-15 0-8.28427-6.7157-15-15-15C6.71573 0 0 6.71573 0 15c0 8.2843 6.71573 15 15 15Z"/>
    <path fill="#fff" fill-rule="evenodd" d="M6.78987 14.8417c4.37283-1.9052 7.28873-3.1612 8.74763-3.768 4.1657-1.73268 5.0313-2.03366 5.5955-2.0436.124-.00218.4015.02857.5812.1744.1518.12313.1935.28947.2135.40622.02.11674.0448.38269.0251.59048-.2258 2.3719-1.2025 8.1277-1.6995 10.7843-.2102 1.124-.6242 1.5009-1.0251 1.5378-.871.0802-1.5325-.5757-2.3762-1.1287-1.3202-.8654-2.066-1.4041-3.3475-2.2486-1.481-.9759-.5209-1.5123.3231-2.3889.2209-.2295 4.0589-3.7204 4.1331-4.0371.0093-.0396.018-.1872-.0697-.2652-.0878-.0779-.2172-.0513-.3106-.0301-.1324.0301-2.2415 1.4241-6.3271 4.182-.5986.4111-1.1409.6113-1.62669.6008-.53558-.0115-1.56581-.3028-2.33169-.5517-.93937-.3054-1.68597-.4668-1.62096-.9854.03386-.2701.40583-.5464 1.11591-.8287Z" clip-rule="evenodd"/>
  </g>
  <defs>
    <linearGradient id="b" x1="1500" x2="1500" y1="0" y2="2977.75" gradientUnits="userSpaceOnUse">
      <stop stop-color="#2AABEE"/>
      <stop offset="1" stop-color="#229ED9"/>
    </linearGradient>
    <clipPath id="a">
      <rect width="30" height="30" fill="#fff"/>
    </clipPath>
  </defs>
</svg>